<svg id="visual" viewBox="0 0 1600 716" width="1600" height="716" xmlns="http://www.w3.org/2000/svg" xmlns:xlink="http://www.w3.org/1999/xlink" version="1.1"><rect x="0" y="0" width="1600" height="716" fill="#40513B"></rect><path d="M0 77L12.7 77.3C25.3 77.7 50.7 78.3 76 80.8C101.3 83.3 126.7 87.7 152.2 90.8C177.7 94 203.3 96 228.8 97.2C254.3 98.3 279.7 98.7 305 104.5C330.3 110.3 355.7 121.7 381 123.5C406.3 125.3 431.7 117.7 457 106.7C482.3 95.7 507.7 81.3 533.2 70.3C558.7 59.3 584.3 51.7 609.8 50.8C635.3 50 660.7 56 686 62C711.3 68 736.7 74 762 81C787.3 88 812.7 96 838 100C863.3 104 888.7 104 914 100.8C939.3 97.7 964.7 91.3 990.2 88C1015.7 84.7 1041.3 84.3 1066.8 92.3C1092.3 100.3 1117.7 116.7 1143 117.5C1168.3 118.3 1193.7 103.7 1219 102.5C1244.3 101.3 1269.7 113.7 1295 120.2C1320.3 126.7 1345.7 127.3 1371.2 120.3C1396.7 113.3 1422.3 98.7 1447.8 87C1473.3 75.3 1498.7 66.7 1524 64.5C1549.3 62.3 1574.7 66.7 1587.3 68.8L1600 71L1600 717L1587.3 717C1574.7 717 1549.3 717 1524 717C1498.7 717 1473.3 717 1447.8 717C1422.3 717 1396.7 717 1371.2 717C1345.7 717 1320.3 717 1295 717C1269.7 717 1244.3 717 1219 717C1193.7 717 1168.3 717 1143 717C1117.7 717 1092.3 717 1066.8 717C1041.3 717 1015.7 717 990.2 717C964.7 717 939.3 717 914 717C888.7 717 863.3 717 838 717C812.7 717 787.3 717 762 717C736.7 717 711.3 717 686 717C660.7 717 635.3 717 609.8 717C584.3 717 558.7 717 533.2 717C507.7 717 482.3 717 457 717C431.7 717 406.3 717 381 717C355.7 717 330.3 717 305 717C279.7 717 254.3 717 228.8 717C203.3 717 177.7 717 152.2 717C126.7 717 101.3 717 76 717C50.7 717 25.3 717 12.7 717L0 717Z" fill="#9dc08b"></path><path d="M0 209L12.7 200.3C25.3 191.7 50.7 174.3 76 171C101.3 167.7 126.7 178.3 152.2 177.2C177.7 176 203.3 163 228.8 162.7C254.3 162.3 279.7 174.7 305 185.2C330.3 195.7 355.7 204.3 381 205.5C406.3 206.7 431.7 200.3 457 190.8C482.3 181.3 507.7 168.7 533.2 172C558.7 175.3 584.3 194.7 609.8 198C635.3 201.3 660.7 188.7 686 175.7C711.3 162.7 736.7 149.3 762 146.8C787.3 144.3 812.7 152.7 838 163.8C863.3 175 888.7 189 914 193C939.3 197 964.7 191 990.2 180C1015.7 169 1041.3 153 1066.8 157.7C1092.3 162.3 1117.7 187.7 1143 190.2C1168.3 192.7 1193.7 172.3 1219 167.3C1244.3 162.3 1269.7 172.7 1295 183C1320.3 193.3 1345.7 203.7 1371.2 201.7C1396.7 199.7 1422.3 185.3 1447.8 182.3C1473.3 179.3 1498.7 187.7 1524 194.5C1549.3 201.3 1574.7 206.7 1587.3 209.3L1600 212L1600 717L1587.3 717C1574.7 717 1549.3 717 1524 717C1498.7 717 1473.3 717 1447.8 717C1422.3 717 1396.7 717 1371.2 717C1345.7 717 1320.3 717 1295 717C1269.7 717 1244.3 717 1219 717C1193.7 717 1168.3 717 1143 717C1117.7 717 1092.3 717 1066.8 717C1041.3 717 1015.7 717 990.2 717C964.7 717 939.3 717 914 717C888.7 717 863.3 717 838 717C812.7 717 787.3 717 762 717C736.7 717 711.3 717 686 717C660.7 717 635.3 717 609.8 717C584.3 717 558.7 717 533.2 717C507.7 717 482.3 717 457 717C431.7 717 406.3 717 381 717C355.7 717 330.3 717 305 717C279.7 717 254.3 717 228.8 717C203.3 717 177.7 717 152.2 717C126.7 717 101.3 717 76 717C50.7 717 25.3 717 12.7 717L0 717Z" fill="#8caf7e"></path><path d="M0 230L12.7 231C25.3 232 50.7 234 76 241.3C101.3 248.7 126.7 261.3 152.2 260.8C177.7 260.3 203.3 246.7 228.8 246.7C254.3 246.7 279.7 260.3 305 267.7C330.3 275 355.7 276 381 281.7C406.3 287.3 431.7 297.7 457 302.5C482.3 307.3 507.7 306.7 533.2 297.2C558.7 287.7 584.3 269.3 609.8 263.2C635.3 257 660.7 263 686 268.7C711.3 274.3 736.7 279.7 762 278.7C787.3 277.7 812.7 270.3 838 267.2C863.3 264 888.7 265 914 260.8C939.3 256.7 964.7 247.3 990.2 247.8C1015.7 248.3 1041.3 258.7 1066.8 258.2C1092.3 257.7 1117.7 246.3 1143 252.2C1168.3 258 1193.7 281 1219 292.8C1244.3 304.7 1269.7 305.3 1295 296.7C1320.3 288 1345.7 270 1371.2 269.3C1396.7 268.7 1422.3 285.3 1447.8 281.2C1473.3 277 1498.7 252 1524 251.2C1549.3 250.3 1574.7 273.7 1587.3 285.3L1600 297L1600 717L1587.3 717C1574.7 717 1549.3 717 1524 717C1498.7 717 1473.3 717 1447.8 717C1422.3 717 1396.7 717 1371.2 717C1345.7 717 1320.3 717 1295 717C1269.7 717 1244.3 717 1219 717C1193.7 717 1168.3 717 1143 717C1117.7 717 1092.3 717 1066.8 717C1041.3 717 1015.7 717 990.2 717C964.7 717 939.3 717 914 717C888.7 717 863.3 717 838 717C812.7 717 787.3 717 762 717C736.7 717 711.3 717 686 717C660.7 717 635.3 717 609.8 717C584.3 717 558.7 717 533.2 717C507.7 717 482.3 717 457 717C431.7 717 406.3 717 381 717C355.7 717 330.3 717 305 717C279.7 717 254.3 717 228.8 717C203.3 717 177.7 717 152.2 717C126.7 717 101.3 717 76 717C50.7 717 25.3 717 12.7 717L0 717Z" fill="#7b9e71"></path><path d="M0 400L12.7 399.3C25.3 398.7 50.7 397.3 76 390.8C101.3 384.3 126.7 372.7 152.2 360C177.7 347.3 203.3 333.7 228.8 328C254.3 322.3 279.7 324.7 305 324.2C330.3 323.7 355.7 320.3 381 319.2C406.3 318 431.7 319 457 325.7C482.3 332.3 507.7 344.7 533.2 346.8C558.7 349 584.3 341 609.8 348.3C635.3 355.7 660.7 378.3 686 388.7C711.3 399 736.7 397 762 389.3C787.3 381.7 812.7 368.3 838 361.2C863.3 354 888.7 353 914 352.3C939.3 351.7 964.7 351.3 990.2 357.8C1015.7 364.3 1041.3 377.7 1066.8 383.5C1092.3 389.3 1117.7 387.7 1143 388C1168.3 388.3 1193.7 390.7 1219 386.5C1244.3 382.3 1269.7 371.7 1295 369C1320.3 366.3 1345.7 371.7 1371.2 374.7C1396.7 377.7 1422.3 378.3 1447.8 368.8C1473.3 359.3 1498.7 339.7 1524 329.7C1549.3 319.7 1574.7 319.3 1587.3 319.2L1600 319L1600 717L1587.3 717C1574.7 717 1549.3 717 1524 717C1498.7 717 1473.3 717 1447.8 717C1422.3 717 1396.7 717 1371.2 717C1345.7 717 1320.3 717 1295 717C1269.7 717 1244.3 717 1219 717C1193.7 717 1168.3 717 1143 717C1117.7 717 1092.3 717 1066.8 717C1041.3 717 1015.7 717 990.2 717C964.7 717 939.3 717 914 717C888.7 717 863.3 717 838 717C812.7 717 787.3 717 762 717C736.7 717 711.3 717 686 717C660.7 717 635.3 717 609.8 717C584.3 717 558.7 717 533.2 717C507.7 717 482.3 717 457 717C431.7 717 406.3 717 381 717C355.7 717 330.3 717 305 717C279.7 717 254.3 717 228.8 717C203.3 717 177.7 717 152.2 717C126.7 717 101.3 717 76 717C50.7 717 25.3 717 12.7 717L0 717Z" fill="#6b8e65"></path><path d="M0 416L12.7 423.2C25.3 430.3 50.7 444.7 76 444.3C101.3 444 126.7 429 152.2 422.7C177.7 416.3 203.3 418.7 228.8 419.8C254.3 421 279.7 421 305 419C330.3 417 355.7 413 381 420.2C406.3 427.3 431.7 445.7 457 452C482.3 458.3 507.7 452.7 533.2 454.3C558.7 456 584.3 465 609.8 471C635.3 477 660.7 480 686 470.2C711.3 460.3 736.7 437.7 762 429.5C787.3 421.3 812.7 427.7 838 432C863.3 436.3 888.7 438.7 914 447.8C939.3 457 964.7 473 990.2 475C1015.7 477 1041.3 465 1066.8 462.2C1092.3 459.3 1117.7 465.7 1143 469.7C1168.3 473.7 1193.7 475.3 1219 466.5C1244.3 457.7 1269.7 438.3 1295 431.5C1320.3 424.7 1345.7 430.3 1371.2 441.8C1396.7 453.3 1422.3 470.7 1447.8 471.3C1473.3 472 1498.7 456 1524 452.7C1549.3 449.3 1574.7 458.7 1587.3 463.3L1600 468L1600 717L1587.3 717C1574.7 717 1549.3 717 1524 717C1498.7 717 1473.3 717 1447.8 717C1422.3 717 1396.7 717 1371.2 717C1345.7 717 1320.3 717 1295 717C1269.7 717 1244.3 717 1219 717C1193.7 717 1168.3 717 1143 717C1117.7 717 1092.3 717 1066.8 717C1041.3 717 1015.7 717 990.2 717C964.7 717 939.3 717 914 717C888.7 717 863.3 717 838 717C812.7 717 787.3 717 762 717C736.7 717 711.3 717 686 717C660.7 717 635.3 717 609.8 717C584.3 717 558.7 717 533.2 717C507.7 717 482.3 717 457 717C431.7 717 406.3 717 381 717C355.7 717 330.3 717 305 717C279.7 717 254.3 717 228.8 717C203.3 717 177.7 717 152.2 717C126.7 717 101.3 717 76 717C50.7 717 25.3 717 12.7 717L0 717Z" fill="#5b7e58"></path><path d="M0 567L12.7 558.8C25.3 550.7 50.7 534.3 76 530.2C101.3 526 126.7 534 152.2 535.3C177.7 536.7 203.3 531.3 228.8 522.8C254.3 514.3 279.7 502.7 305 507C330.3 511.3 355.7 531.7 381 538.2C406.3 544.7 431.7 537.3 457 530.7C482.3 524 507.7 518 533.2 520.7C558.7 523.3 584.3 534.7 609.8 541.8C635.3 549 660.7 552 686 543.3C711.3 534.7 736.7 514.3 762 508.3C787.3 502.3 812.7 510.7 838 516.7C863.3 522.7 888.7 526.3 914 523.8C939.3 521.3 964.7 512.7 990.2 515.2C1015.7 517.7 1041.3 531.3 1066.8 530.3C1092.3 529.3 1117.7 513.7 1143 513.2C1168.3 512.7 1193.7 527.3 1219 536.7C1244.3 546 1269.7 550 1295 550.7C1320.3 551.3 1345.7 548.7 1371.2 551.5C1396.7 554.3 1422.3 562.7 1447.8 563.5C1473.3 564.3 1498.7 557.7 1524 557.3C1549.3 557 1574.7 563 1587.3 566L1600 569L1600 717L1587.3 717C1574.7 717 1549.3 717 1524 717C1498.7 717 1473.3 717 1447.8 717C1422.3 717 1396.7 717 1371.2 717C1345.7 717 1320.3 717 1295 717C1269.7 717 1244.3 717 1219 717C1193.7 717 1168.3 717 1143 717C1117.7 717 1092.3 717 1066.8 717C1041.3 717 1015.7 717 990.2 717C964.7 717 939.3 717 914 717C888.7 717 863.3 717 838 717C812.7 717 787.3 717 762 717C736.7 717 711.3 717 686 717C660.7 717 635.3 717 609.8 717C584.3 717 558.7 717 533.2 717C507.7 717 482.3 717 457 717C431.7 717 406.3 717 381 717C355.7 717 330.3 717 305 717C279.7 717 254.3 717 228.8 717C203.3 717 177.7 717 152.2 717C126.7 717 101.3 717 76 717C50.7 717 25.3 717 12.7 717L0 717Z" fill="#4c6e4c"></path><path d="M0 581L12.7 585.5C25.3 590 50.7 599 76 609C101.3 619 126.7 630 152.2 631.5C177.7 633 203.3 625 228.8 617.8C254.3 610.7 279.7 604.3 305 612.3C330.3 620.3 355.7 642.7 381 654.2C406.3 665.7 431.7 666.3 457 653.8C482.3 641.3 507.7 615.7 533.2 607.8C558.7 600 584.3 610 609.8 621.3C635.3 632.7 660.7 645.3 686 648.7C711.3 652 736.7 646 762 638C787.3 630 812.7 620 838 624.5C863.3 629 888.7 648 914 651.3C939.3 654.7 964.7 642.3 990.2 630C1015.7 617.7 1041.3 605.3 1066.8 601.2C1092.3 597 1117.7 601 1143 610.2C1168.3 619.3 1193.7 633.7 1219 640.8C1244.3 648 1269.7 648 1295 637C1320.3 626 1345.7 604 1371.2 593C1396.7 582 1422.3 582 1447.8 589.8C1473.3 597.7 1498.7 613.3 1524 627.2C1549.3 641 1574.7 653 1587.3 659L1600 665L1600 717L1587.3 717C1574.7 717 1549.3 717 1524 717C1498.7 717 1473.3 717 1447.8 717C1422.3 717 1396.7 717 1371.2 717C1345.7 717 1320.3 717 1295 717C1269.7 717 1244.3 717 1219 717C1193.7 717 1168.3 717 1143 717C1117.7 717 1092.3 717 1066.8 717C1041.3 717 1015.7 717 990.2 717C964.7 717 939.3 717 914 717C888.7 717 863.3 717 838 717C812.7 717 787.3 717 762 717C736.7 717 711.3 717 686 717C660.7 717 635.3 717 609.8 717C584.3 717 558.7 717 533.2 717C507.7 717 482.3 717 457 717C431.7 717 406.3 717 381 717C355.7 717 330.3 717 305 717C279.7 717 254.3 717 228.8 717C203.3 717 177.7 717 152.2 717C126.7 717 101.3 717 76 717C50.7 717 25.3 717 12.7 717L0 717Z" fill="#3d5f40"></path></svg>