<svg id="visual" viewBox="0 0 1600 900" width="1600" height="900" xmlns="http://www.w3.org/2000/svg" xmlns:xlink="http://www.w3.org/1999/xlink" version="1.1"><rect x="0" y="0" width="1600" height="900" fill="#609966"></rect><path d="M0 101L17.8 102.2C35.7 103.3 71.3 105.7 106.8 113.5C142.3 121.3 177.7 134.7 213.2 136.7C248.7 138.7 284.3 129.3 320 129.3C355.7 129.3 391.3 138.7 426.8 145C462.3 151.3 497.7 154.7 533.2 150C568.7 145.3 604.3 132.7 640 133.8C675.7 135 711.3 150 746.8 156.5C782.3 163 817.7 161 853.2 155.2C888.7 149.3 924.3 139.7 960 130.8C995.7 122 1031.3 114 1066.8 113.3C1102.3 112.7 1137.7 119.3 1173.2 130.3C1208.7 141.3 1244.3 156.7 1280 153.3C1315.7 150 1351.3 128 1386.8 128.2C1422.3 128.3 1457.7 150.7 1493.2 152.5C1528.7 154.3 1564.3 135.7 1582.2 126.3L1600 117L1600 0L1582.2 0C1564.3 0 1528.7 0 1493.2 0C1457.7 0 1422.3 0 1386.8 0C1351.3 0 1315.7 0 1280 0C1244.3 0 1208.7 0 1173.2 0C1137.7 0 1102.3 0 1066.8 0C1031.3 0 995.7 0 960 0C924.3 0 888.7 0 853.2 0C817.7 0 782.3 0 746.8 0C711.3 0 675.7 0 640 0C604.3 0 568.7 0 533.2 0C497.7 0 462.3 0 426.8 0C391.3 0 355.7 0 320 0C284.3 0 248.7 0 213.2 0C177.7 0 142.3 0 106.8 0C71.3 0 35.7 0 17.8 0L0 0Z" fill="#3D5F40" stroke-linecap="round" stroke-linejoin="miter"></path></svg>